<?xml version="1.0" encoding="utf-8"?>
<!-- Generator: Adobe Illustrator 27.4.1, SVG Export Plug-In . SVG Version: 6.00 Build 0)  -->
<!DOCTYPE svg PUBLIC "-//W3C//DTD SVG 1.1//EN" "http://www.w3.org/Graphics/SVG/1.1/DTD/svg11.dtd" [
	<!ENTITY ns_extend "http://ns.adobe.com/Extensibility/1.0/">
	<!ENTITY ns_ai "http://ns.adobe.com/AdobeIllustrator/10.0/">
	<!ENTITY ns_graphs "http://ns.adobe.com/Graphs/1.0/">
	<!ENTITY ns_vars "http://ns.adobe.com/Variables/1.0/">
	<!ENTITY ns_imrep "http://ns.adobe.com/ImageReplacement/1.0/">
	<!ENTITY ns_sfw "http://ns.adobe.com/SaveForWeb/1.0/">
	<!ENTITY ns_custom "http://ns.adobe.com/GenericCustomNamespace/1.0/">
	<!ENTITY ns_adobe_xpath "http://ns.adobe.com/XPath/1.0/">
]>
<svg version="1.1" id="Layer_1" xmlns:x="&ns_extend;" xmlns:i="&ns_ai;" xmlns:graph="&ns_graphs;"
	 xmlns="http://www.w3.org/2000/svg" xmlns:xlink="http://www.w3.org/1999/xlink" x="0px" y="0px" viewBox="0 0 448 512"
	 style="enable-background:new 0 0 448 512;" xml:space="preserve">
<style type="text/css">
	.st0{fill:#ffffff;stroke:#000000;}
</style>
<metadata>
	<sfw  xmlns="&ns_sfw;">
		<slices></slices>
		<sliceSourceBounds  bottomLeftOrigin="true" height="449" width="449" x="-0.5" y="31.5"></sliceSourceBounds>
	</sfw>
</metadata>
<path class="st0" d="M416,32H31.9C14.3,32,0,46.5,0,64.3v383.4C0,465.5,14.3,480,31.9,480H416c17.6,0,32-14.5,32-32.3V64.3
	C448,46.5,433.6,32,416,32z M135.4,416H69V202.2h66.5V416H135.4z M102.2,173c-21.3,0-38.5-17.3-38.5-38.5S80.9,96,102.2,96
	c21.2,0,38.5,17.3,38.5,38.5C140.7,155.8,123.5,173,102.2,173z M384.3,416h-66.4V312c0-24.8-0.5-56.7-34.5-56.7
	c-34.6,0-39.9,27-39.9,54.9V416h-66.4V202.2h63.7v29.2h0.9c8.9-16.8,30.6-34.5,62.9-34.5c67.2,0,79.7,44.3,79.7,101.9V416z"/>
</svg>
